<svg id="Layer_2" data-name="Layer 2" xmlns="http://www.w3.org/2000/svg" viewBox="0 0 1920 1080"><defs><style>.cls-1{fill:#5b595b;}.cls-2{fill:#fff;}.cls-3,.cls-4,.cls-5{font-size:388.03px;stroke:lime;stroke-miterlimit:10;stroke-width:6px;font-family:ArialRoundedMTBold, Arial Rounded MT Bold;}.cls-3{fill:#0074ff;}.cls-4{fill:#df00ff;}.cls-5{fill:#ff00f3;}</style></defs><title>Anon</title><rect class="cls-1" width="1920" height="1080"/><rect class="cls-2" x="343.61" y="230.77" width="27.11" height="222.05" rx="13.56" ry="13.56" transform="translate(288.54 -147.78) rotate(38.28)"/><rect class="cls-2" x="423.28" y="173.58" width="27.11" height="222.05" rx="13.56" ry="13.56" transform="translate(270.25 -209.43) rotate(38.28)"/><rect class="cls-2" x="412.57" y="230.92" width="27.11" height="222.05" rx="13.56" ry="13.56" transform="translate(303.46 -190.47) rotate(38.28)"/><rect class="cls-2" x="372.29" y="357.94" width="27.11" height="157.59" rx="13.56" ry="13.56" transform="translate(353.53 -145.13) rotate(38.28)"/><rect class="cls-2" x="446.36" y="307.85" width="27.11" height="157.59" rx="13.56" ry="13.56" transform="translate(338.42 -201.79) rotate(38.28)"/><rect class="cls-2" x="521.79" y="241.02" width="27.11" height="187.63" rx="13.56" ry="13.56" transform="translate(322.54 -259.66) rotate(38.28)"/><rect class="cls-2" x="475.89" y="342.94" width="27.11" height="187.63" rx="13.56" ry="13.56" transform="matrix(0.78, 0.62, -0.62, 0.78, 375.82, -209.31)"/><rect class="cls-2" x="469.44" y="394.87" width="27.11" height="187.63" rx="13.56" ry="13.56" transform="translate(406.6 -194.15) rotate(38.28)"/><rect class="cls-2" x="576.57" y="302.89" width="27.11" height="187.63" rx="13.56" ry="13.56" transform="translate(372.65 -280.29) rotate(38.28)"/><rect class="cls-2" x="567.46" y="358.2" width="27.11" height="187.63" rx="13.56" ry="13.56" transform="translate(404.96 -262.76) rotate(38.28)"/><rect class="cls-2" x="553.55" y="419.58" width="27.11" height="187.63" rx="13.56" ry="13.56" transform="translate(440 -240.94) rotate(38.28)"/><rect class="cls-2" x="610.02" y="391.79" width="27.11" height="187.63" rx="13.56" ry="13.56" transform="translate(434.92 -281.9) rotate(38.28)"/><rect class="cls-2" x="585.98" y="466.01" width="27.11" height="187.63" rx="13.56" ry="13.56" transform="translate(475.73 -251.05) rotate(38.28)"/><rect class="cls-2" x="582.73" y="513.89" width="27.11" height="187.63" rx="13.56" ry="13.56" transform="translate(504.7 -238.74) rotate(38.28)"/><rect class="cls-2" x="664.51" y="454.03" width="27.11" height="187.63" rx="13.56" ry="13.56" transform="translate(485.19 -302.28) rotate(38.28)"/><rect class="cls-2" x="747.35" y="392.82" width="27.11" height="187.63" rx="13.56" ry="13.56" transform="translate(465.09 -366.76) rotate(38.28)"/><rect class="cls-2" x="739.36" y="446.71" width="27.11" height="187.63" rx="13.56" ry="13.56" transform="translate(496.76 -350.22) rotate(38.28)"/><rect class="cls-2" x="683.06" y="572.57" width="27.11" height="166.12" rx="13.56" ry="13.56" transform="translate(555.96 -290.59) rotate(38.28)"/><rect class="cls-2" x="612.34" y="595.49" width="27.11" height="124.45" rx="13.56" ry="13.56" transform="translate(542.04 -246.33) rotate(38.28)"/><rect class="cls-2" x="508.71" y="201.66" width="27.11" height="124.45" rx="13.56" ry="13.56" transform="translate(275.77 -266.81) rotate(38.28)"/><rect class="cls-2" x="748.25" y="183.05" width="27.11" height="222.05" rx="13.56" ry="13.56" transform="translate(345.99 -408.72) rotate(38.28)"/><rect class="cls-2" x="827.92" y="125.87" width="27.11" height="222.05" rx="13.56" ry="13.56" transform="translate(327.69 -470.37) rotate(38.28)"/><rect class="cls-2" x="817.21" y="183.2" width="27.11" height="222.05" rx="13.56" ry="13.56" transform="translate(360.91 -451.41) rotate(38.28)"/><rect class="cls-2" x="776.93" y="310.23" width="27.11" height="157.59" rx="13.56" ry="13.56" transform="translate(410.97 -406.07) rotate(38.28)"/><rect class="cls-2" x="851" y="260.14" width="27.11" height="157.59" rx="13.56" ry="13.56" transform="translate(395.87 -462.73) rotate(38.28)"/><rect class="cls-2" x="926.43" y="193.3" width="27.11" height="187.63" rx="13.56" ry="13.56" transform="translate(379.99 -520.6) rotate(38.28)"/><rect class="cls-2" x="880.53" y="295.23" width="27.11" height="187.63" rx="13.56" ry="13.56" transform="translate(433.26 -470.25) rotate(38.28)"/><rect class="cls-2" x="874.08" y="347.16" width="27.11" height="187.63" rx="13.56" ry="13.56" transform="translate(464.05 -455.09) rotate(38.28)"/><rect class="cls-2" x="981.21" y="255.17" width="27.11" height="187.63" rx="13.56" ry="13.56" transform="translate(430.1 -541.23) rotate(38.28)"/><rect class="cls-2" x="972.1" y="310.48" width="27.11" height="187.63" rx="13.56" ry="13.56" transform="translate(462.4 -523.7) rotate(38.28)"/><rect class="cls-2" x="958.19" y="371.87" width="27.11" height="187.63" rx="13.56" ry="13.56" transform="translate(497.44 -501.88) rotate(38.28)"/><rect class="cls-2" x="1014.66" y="344.07" width="27.11" height="187.63" rx="13.56" ry="13.56" transform="translate(492.36 -542.84) rotate(38.28)"/><rect class="cls-2" x="990.62" y="418.3" width="27.11" height="187.63" rx="13.56" ry="13.56" transform="translate(533.18 -511.99) rotate(38.28)"/><rect class="cls-2" x="987.37" y="466.17" width="27.11" height="187.63" rx="13.56" ry="13.56" transform="translate(562.14 -499.68) rotate(38.28)"/><rect class="cls-2" x="1069.15" y="406.31" width="27.11" height="187.63" rx="13.56" ry="13.56" transform="translate(542.64 -563.22) rotate(38.28)"/><rect class="cls-2" x="1151.99" y="345.11" width="27.11" height="187.63" rx="13.56" ry="13.56" transform="translate(522.53 -627.7) rotate(38.28)"/><rect class="cls-2" x="1144" y="399" width="27.11" height="187.63" rx="13.56" ry="13.56" transform="translate(554.2 -611.16) rotate(38.28)"/><rect class="cls-2" x="1087.7" y="524.86" width="27.11" height="166.12" rx="13.56" ry="13.56" transform="translate(613.4 -551.53) rotate(38.28)"/><rect class="cls-2" x="1016.98" y="547.77" width="27.11" height="124.45" rx="13.56" ry="13.56" transform="translate(599.49 -507.27) rotate(38.28)"/><rect class="cls-2" x="1143.09" y="151.93" width="27.11" height="222.05" rx="13.56" ry="13.56" transform="translate(411.61 -660.02) rotate(38.28)"/><rect class="cls-2" x="1222.76" y="94.75" width="27.11" height="222.05" rx="13.56" ry="13.56" transform="translate(393.31 -721.67) rotate(38.28)"/><rect class="cls-2" x="1212.05" y="152.08" width="27.11" height="222.05" rx="13.56" ry="13.56" transform="translate(426.53 -702.71) rotate(38.28)"/><rect class="cls-2" x="1171.77" y="279.11" width="27.11" height="157.59" rx="13.56" ry="13.56" transform="translate(476.59 -657.37) rotate(38.28)"/><rect class="cls-2" x="1245.84" y="229.02" width="27.11" height="157.59" rx="13.56" ry="13.56" transform="translate(461.49 -714.03) rotate(38.28)"/><rect class="cls-2" x="1321.27" y="162.18" width="27.11" height="187.63" rx="13.56" ry="13.56" transform="matrix(0.78, 0.62, -0.62, 0.78, 445.61, -771.9)"/><rect class="cls-2" x="1275.37" y="264.11" width="27.11" height="187.63" rx="13.56" ry="13.56" transform="translate(498.88 -721.55) rotate(38.28)"/><rect class="cls-2" x="1268.92" y="316.04" width="27.11" height="187.63" rx="13.56" ry="13.56" transform="translate(529.67 -706.39) rotate(38.28)"/><rect class="cls-2" x="1376.05" y="224.06" width="27.11" height="187.63" rx="13.56" ry="13.56" transform="translate(495.72 -792.54) rotate(38.28)"/><rect class="cls-2" x="1366.94" y="279.36" width="27.11" height="187.63" rx="13.56" ry="13.56" transform="translate(528.02 -775) rotate(38.28)"/><rect class="cls-2" x="1353.03" y="340.75" width="27.11" height="187.63" rx="13.56" ry="13.56" transform="translate(563.06 -753.18) rotate(38.28)"/><rect class="cls-2" x="1409.5" y="312.95" width="27.11" height="187.63" rx="13.56" ry="13.56" transform="translate(557.98 -794.14) rotate(38.28)"/><rect class="cls-2" x="1385.46" y="387.18" width="27.11" height="187.63" rx="13.56" ry="13.56" transform="translate(598.8 -763.29) rotate(38.28)"/><rect class="cls-2" x="1382.21" y="435.05" width="27.11" height="187.63" rx="13.56" ry="13.56" transform="translate(627.76 -750.99) rotate(38.28)"/><rect class="cls-2" x="1463.99" y="375.19" width="27.11" height="187.63" rx="13.56" ry="13.56" transform="translate(608.26 -814.52) rotate(38.28)"/><rect class="cls-2" x="1538.84" y="367.88" width="27.11" height="187.63" rx="13.56" ry="13.56" transform="translate(619.82 -862.46) rotate(38.28)"/><rect class="cls-2" x="1482.54" y="493.74" width="27.11" height="166.12" rx="13.56" ry="13.56" transform="translate(679.02 -802.83) rotate(38.28)"/><rect class="cls-2" x="1411.82" y="516.65" width="27.11" height="124.45" rx="13.56" ry="13.56" transform="translate(665.1 -758.58) rotate(38.28)"/><text class="cls-3" transform="translate(351.17 528.87)">ANON</text><rect class="cls-2" x="556" y="424.78" width="27.11" height="187.63" rx="13.56" ry="13.56" transform="translate(443.74 -241.34) rotate(38.28)"/><rect class="cls-2" x="612.47" y="396.98" width="27.11" height="187.63" rx="13.56" ry="13.56" transform="translate(438.67 -282.3) rotate(38.28)"/><rect class="cls-2" x="588.43" y="471.21" width="27.11" height="187.63" rx="13.56" ry="13.56" transform="translate(479.48 -251.45) rotate(38.28)"/><rect class="cls-2" x="585.18" y="519.08" width="27.11" height="187.63" rx="13.56" ry="13.56" transform="translate(508.44 -239.14) rotate(38.28)"/><rect class="cls-2" x="666.96" y="459.22" width="27.11" height="187.63" rx="13.56" ry="13.56" transform="translate(488.94 -302.68) rotate(38.28)"/><rect class="cls-2" x="749.8" y="398.02" width="27.11" height="187.63" rx="13.56" ry="13.56" transform="translate(468.84 -367.16) rotate(38.28)"/><rect class="cls-2" x="741.81" y="451.91" width="27.11" height="187.63" rx="13.56" ry="13.56" transform="translate(500.5 -350.62) rotate(38.28)"/><rect class="cls-2" x="685.5" y="577.77" width="27.11" height="166.12" rx="13.56" ry="13.56" transform="translate(559.7 -290.99) rotate(38.28)"/><rect class="cls-2" x="614.79" y="600.68" width="27.11" height="124.45" rx="13.56" ry="13.56" transform="translate(545.79 -246.73) rotate(38.28)"/><rect class="cls-2" x="1220.87" y="415.05" width="27.11" height="187.63" rx="13.56" ry="13.56" transform="translate(580.67 -655.33) rotate(38.28)"/><rect class="cls-2" x="1321.19" y="473.74" width="27.11" height="166.12" rx="13.56" ry="13.56" transform="translate(631.94 -707.18) rotate(38.28)"/><rect class="cls-2" x="1250.47" y="496.65" width="27.11" height="124.45" rx="13.56" ry="13.56" transform="translate(618.02 -662.92) rotate(38.28)"/><rect class="cls-2" x="1223.31" y="420.25" width="27.11" height="187.63" rx="13.56" ry="13.56" transform="translate(584.42 -655.73) rotate(38.28)"/><rect class="cls-2" x="1323.64" y="478.93" width="27.11" height="166.12" rx="13.56" ry="13.56" transform="translate(635.68 -707.58) rotate(38.28)"/><rect class="cls-2" x="1252.92" y="501.85" width="27.11" height="124.45" rx="13.56" ry="13.56" transform="translate(621.77 -663.32) rotate(38.28)"/><rect class="cls-2" x="420.11" y="417.91" width="27.11" height="187.63" rx="13.56" ry="13.56" transform="translate(410.27 -158.63) rotate(38.28)"/><rect class="cls-2" x="520.43" y="476.6" width="27.11" height="166.12" rx="13.56" ry="13.56" transform="translate(461.53 -210.48) rotate(38.28)"/><rect class="cls-2" x="449.72" y="499.51" width="27.11" height="124.45" rx="13.56" ry="13.56" transform="translate(447.62 -166.22) rotate(38.28)"/><rect class="cls-2" x="422.56" y="423.11" width="27.11" height="187.63" rx="13.56" ry="13.56" transform="translate(414.02 -159.03) rotate(38.28)"/><rect class="cls-2" x="522.88" y="481.79" width="27.11" height="166.12" rx="13.56" ry="13.56" transform="translate(465.28 -210.88) rotate(38.28)"/><rect class="cls-2" x="452.17" y="504.71" width="27.11" height="124.45" rx="13.56" ry="13.56" transform="translate(451.36 -166.62) rotate(38.28)"/><text class="cls-3" transform="translate(353.62 534.07)">ANON</text><text class="cls-3" transform="translate(353.62 528.87)">ANON</text><rect class="cls-2" x="1144.6" y="147.52" width="27.11" height="222.05" rx="13.56" ry="13.56" transform="translate(409.19 -661.91) rotate(38.28)"/><rect class="cls-2" x="1224.27" y="90.33" width="27.11" height="222.05" rx="13.56" ry="13.56" transform="translate(390.9 -723.56) rotate(38.28)"/><rect class="cls-2" x="1213.56" y="147.67" width="27.11" height="222.05" rx="13.56" ry="13.56" transform="translate(424.11 -704.59) rotate(38.28)"/><rect class="cls-2" x="1322.78" y="157.77" width="27.11" height="187.63" rx="13.56" ry="13.56" transform="translate(443.19 -773.79) rotate(38.28)"/><text class="cls-3" transform="translate(352.67 524.45)">ANON</text><text class="cls-3" transform="translate(355.12 524.45)">ANON</text><text class="cls-4" transform="translate(344.62 534.07)">ANON</text><text class="cls-5" transform="translate(355.12 534.07)">ANON</text></svg>